# xmcd
#
# Track frame offsets: 
#        150
#        14474
#        24785
#        43169
#        68435
#        83105
#        113806
#        125729
#        139670
#        158336
#        187672
#        203468
#        217088
#
# Disc length: 3089 seconds
#
# Revision: 0
# Processed by: cddbd v1.5.2PL0 Copyright (c) Steve Scherf et al.
# Submitted via: ExactAudioCopy v1.0b3
#
DISCID=9f0c0f0d
DTITLE=PAUL RODGERS - THE ROYAL SESSIONS
DYEAR=2013
DGENRE=R&B
TTITLE0=I THANK YOU
TTITLE1=DOWN DON'T BOTHER ME
TTITLE2=I CAN'T STAND THE RAIN
TTITLE3=I'VE BEEN LOVING YOU TOO LONG
TTITLE4=THAT'S HOW STRONG MY LOVE IS
TTITLE5=WALK ON BY
TTITLE6=ANY OLE WAY
TTITLE7=IT'S GROWING
TTITLE8=BORN UNDER A BAD SIGN
TTITLE9=I'VE GOT DREAMS TO REMEMBER
TTITLE10=SHAKE
TTITLE11=WALK IN MY SHADOW
TTITLE12=WONDERFUL WORLD
EXTD=
EXTT0=
EXTT1=
EXTT2=
EXTT3=
EXTT4=
EXTT5=
EXTT6=
EXTT7=
EXTT8=
EXTT9=
EXTT10=
EXTT11=
EXTT12=
PLAYORDER=
